<mxfile host="Electron" modified="2023-06-06T14:47:36.123Z" agent="Mozilla/5.0 (Windows NT 10.0; Win64; x64) AppleWebKit/537.36 (KHTML, like Gecko) draw.io/21.1.2 Chrome/106.0.5249.199 Electron/21.4.3 Safari/537.36" etag="a2QCdgJ5BEjgTslU07EW" version="21.1.2" type="device">
  <diagram name="PÃ¡gina-1" id="tJ8bH1NhNrcFLUNnNZUb">
    <mxGraphModel dx="4074" dy="2107" grid="1" gridSize="10" guides="1" tooltips="1" connect="1" arrows="1" fold="1" page="1" pageScale="1" pageWidth="827" pageHeight="1169" math="0" shadow="0">
      <root>
        <mxCell id="0" />
        <mxCell id="1" parent="0" />
        <mxCell id="B7g81SeDOoeG7HOJfXg6-3" value="PERSONA" style="rounded=0;whiteSpace=wrap;html=1;" parent="1" vertex="1">
          <mxGeometry x="-303" y="-30" width="120" height="60" as="geometry" />
        </mxCell>
        <mxCell id="B7g81SeDOoeG7HOJfXg6-4" value="&lt;u&gt;CUIL&lt;/u&gt;" style="ellipse;whiteSpace=wrap;html=1;" parent="1" vertex="1">
          <mxGeometry x="-413" y="-140" width="120" height="80" as="geometry" />
        </mxCell>
        <mxCell id="B7g81SeDOoeG7HOJfXg6-5" value="&lt;u&gt;NUMERO_PACIENTE&lt;/u&gt;" style="ellipse;whiteSpace=wrap;html=1;" parent="1" vertex="1">
          <mxGeometry x="-213" y="-140" width="120" height="80" as="geometry" />
        </mxCell>
        <mxCell id="B7g81SeDOoeG7HOJfXg6-6" value="" style="endArrow=none;html=1;rounded=0;exitX=1;exitY=0;exitDx=0;exitDy=0;" parent="1" source="B7g81SeDOoeG7HOJfXg6-3" edge="1">
          <mxGeometry width="50" height="50" relative="1" as="geometry">
            <mxPoint x="-213" y="-10" as="sourcePoint" />
            <mxPoint x="-163" y="-60" as="targetPoint" />
          </mxGeometry>
        </mxCell>
        <mxCell id="B7g81SeDOoeG7HOJfXg6-7" value="" style="endArrow=none;html=1;rounded=0;exitX=0;exitY=0;exitDx=0;exitDy=0;entryX=0.683;entryY=0.963;entryDx=0;entryDy=0;entryPerimeter=0;" parent="1" source="B7g81SeDOoeG7HOJfXg6-3" edge="1" target="B7g81SeDOoeG7HOJfXg6-4">
          <mxGeometry width="50" height="50" relative="1" as="geometry">
            <mxPoint x="-363" y="-20" as="sourcePoint" />
            <mxPoint x="-313" y="-70" as="targetPoint" />
          </mxGeometry>
        </mxCell>
        <mxCell id="B7g81SeDOoeG7HOJfXg6-8" value="ANTECEDENTE" style="rounded=0;whiteSpace=wrap;html=1;" parent="1" vertex="1">
          <mxGeometry x="-650" y="155" width="120" height="60" as="geometry" />
        </mxCell>
        <mxCell id="B7g81SeDOoeG7HOJfXg6-9" value="CONDICIONES&lt;br&gt;PREEXISTENTES" style="ellipse;whiteSpace=wrap;html=1;" parent="1" vertex="1">
          <mxGeometry x="-645" y="240" width="110" height="80" as="geometry" />
        </mxCell>
        <mxCell id="B7g81SeDOoeG7HOJfXg6-10" value="DIAGNOSTICO" style="rounded=0;whiteSpace=wrap;html=1;" parent="1" vertex="1">
          <mxGeometry x="-1540" y="625" width="120" height="60" as="geometry" />
        </mxCell>
        <mxCell id="B7g81SeDOoeG7HOJfXg6-11" value="&lt;span style=&quot;font-style: normal;&quot;&gt;&lt;u&gt;CODIGO&lt;/u&gt;&lt;/span&gt;" style="ellipse;whiteSpace=wrap;html=1;fontStyle=2" parent="1" vertex="1">
          <mxGeometry x="-1500" y="770" width="70" height="50" as="geometry" />
        </mxCell>
        <mxCell id="B7g81SeDOoeG7HOJfXg6-12" value="" style="endArrow=none;html=1;rounded=0;exitX=0.617;exitY=0.983;exitDx=0;exitDy=0;exitPerimeter=0;" parent="1" source="B7g81SeDOoeG7HOJfXg6-10" target="B7g81SeDOoeG7HOJfXg6-11" edge="1">
          <mxGeometry width="50" height="50" relative="1" as="geometry">
            <mxPoint x="-1484" y="675" as="sourcePoint" />
            <mxPoint x="-1627" y="637" as="targetPoint" />
          </mxGeometry>
        </mxCell>
        <mxCell id="B7g81SeDOoeG7HOJfXg6-13" value="&lt;span&gt;CODIGO&lt;br&gt;ANTECEDENTE&lt;/span&gt;" style="ellipse;whiteSpace=wrap;html=1;fontStyle=0" parent="1" vertex="1">
          <mxGeometry x="-524" y="230" width="120" height="80" as="geometry" />
        </mxCell>
        <mxCell id="B7g81SeDOoeG7HOJfXg6-14" value="" style="endArrow=none;html=1;rounded=0;" parent="1" edge="1">
          <mxGeometry width="50" height="50" relative="1" as="geometry">
            <mxPoint x="-600" y="70" as="sourcePoint" />
            <mxPoint x="-720" y="70" as="targetPoint" />
            <Array as="points">
              <mxPoint x="-640" y="70" />
            </Array>
          </mxGeometry>
        </mxCell>
        <mxCell id="B7g81SeDOoeG7HOJfXg6-15" value="" style="endArrow=none;html=1;rounded=0;exitX=1;exitY=1;exitDx=0;exitDy=0;" parent="1" source="B7g81SeDOoeG7HOJfXg6-8" target="B7g81SeDOoeG7HOJfXg6-13" edge="1">
          <mxGeometry width="50" height="50" relative="1" as="geometry">
            <mxPoint x="608.99" y="-160" as="sourcePoint" />
            <mxPoint x="658.99" y="-210" as="targetPoint" />
          </mxGeometry>
        </mxCell>
        <mxCell id="B7g81SeDOoeG7HOJfXg6-16" value="EFECTO ADVERSO" style="rounded=0;whiteSpace=wrap;html=1;" parent="1" vertex="1">
          <mxGeometry x="-1290" y="150" width="120" height="60" as="geometry" />
        </mxCell>
        <mxCell id="B7g81SeDOoeG7HOJfXg6-17" value="EVENTO" style="rounded=0;whiteSpace=wrap;html=1;" parent="1" vertex="1">
          <mxGeometry x="-1050" y="-30" width="120" height="60" as="geometry" />
        </mxCell>
        <mxCell id="B7g81SeDOoeG7HOJfXg6-18" value="TRATAMIENTO" style="rounded=0;whiteSpace=wrap;html=1;" parent="1" vertex="1">
          <mxGeometry x="-1020" y="155" width="120" height="60" as="geometry" />
        </mxCell>
        <mxCell id="B7g81SeDOoeG7HOJfXg6-19" value="PRACTICA&lt;br&gt;DIAGNOSTICA" style="rounded=0;whiteSpace=wrap;html=1;" parent="1" vertex="1">
          <mxGeometry x="-1223" y="620" width="120" height="60" as="geometry" />
        </mxCell>
        <mxCell id="B7g81SeDOoeG7HOJfXg6-20" value="QUIRURGICA" style="rounded=0;whiteSpace=wrap;html=1;" parent="1" vertex="1">
          <mxGeometry x="-1020" y="620" width="120" height="60" as="geometry" />
        </mxCell>
        <mxCell id="B7g81SeDOoeG7HOJfXg6-21" value="COMPUESTO&lt;br&gt;FARMACOLOGICO" style="rounded=0;whiteSpace=wrap;html=1;" parent="1" vertex="1">
          <mxGeometry x="-820" y="620" width="120" height="60" as="geometry" />
        </mxCell>
        <mxCell id="B7g81SeDOoeG7HOJfXg6-22" value="" style="endArrow=none;html=1;rounded=0;" parent="1" edge="1">
          <mxGeometry width="50" height="50" relative="1" as="geometry">
            <mxPoint x="-960" y="570" as="sourcePoint" />
            <mxPoint x="-960" y="530" as="targetPoint" />
          </mxGeometry>
        </mxCell>
        <mxCell id="B7g81SeDOoeG7HOJfXg6-23" value="" style="endArrow=none;html=1;rounded=0;" parent="1" edge="1">
          <mxGeometry width="50" height="50" relative="1" as="geometry">
            <mxPoint x="-1160" y="570" as="sourcePoint" />
            <mxPoint x="-750" y="570" as="targetPoint" />
          </mxGeometry>
        </mxCell>
        <mxCell id="B7g81SeDOoeG7HOJfXg6-24" value="" style="endArrow=none;html=1;rounded=0;exitX=0.5;exitY=0;exitDx=0;exitDy=0;" parent="1" source="B7g81SeDOoeG7HOJfXg6-19" edge="1">
          <mxGeometry width="50" height="50" relative="1" as="geometry">
            <mxPoint x="-1163" y="605" as="sourcePoint" />
            <mxPoint x="-1163" y="570" as="targetPoint" />
          </mxGeometry>
        </mxCell>
        <mxCell id="B7g81SeDOoeG7HOJfXg6-25" value="" style="endArrow=none;html=1;rounded=0;exitX=0.5;exitY=0;exitDx=0;exitDy=0;" parent="1" source="B7g81SeDOoeG7HOJfXg6-20" edge="1">
          <mxGeometry width="50" height="50" relative="1" as="geometry">
            <mxPoint x="-960.5" y="605" as="sourcePoint" />
            <mxPoint x="-960" y="570" as="targetPoint" />
          </mxGeometry>
        </mxCell>
        <mxCell id="B7g81SeDOoeG7HOJfXg6-27" value="" style="endArrow=none;html=1;rounded=0;" parent="1" edge="1">
          <mxGeometry width="50" height="50" relative="1" as="geometry">
            <mxPoint x="-750" y="620" as="sourcePoint" />
            <mxPoint x="-750" y="570" as="targetPoint" />
          </mxGeometry>
        </mxCell>
        <mxCell id="B7g81SeDOoeG7HOJfXg6-28" value="&lt;span&gt;CODIGO&lt;/span&gt;" style="ellipse;whiteSpace=wrap;html=1;fontStyle=0" parent="1" vertex="1">
          <mxGeometry x="-1540" y="105" width="120" height="80" as="geometry" />
        </mxCell>
        <mxCell id="B7g81SeDOoeG7HOJfXg6-29" value="NOMBRE" style="ellipse;whiteSpace=wrap;html=1;" parent="1" vertex="1">
          <mxGeometry x="-1440" y="20" width="120" height="80" as="geometry" />
        </mxCell>
        <mxCell id="B7g81SeDOoeG7HOJfXg6-30" value="TIPO_EFECTO" style="rounded=0;whiteSpace=wrap;html=1;" parent="1" vertex="1">
          <mxGeometry x="-1630" y="210" width="120" height="60" as="geometry" />
        </mxCell>
        <mxCell id="B7g81SeDOoeG7HOJfXg6-32" value="" style="endArrow=none;html=1;rounded=0;entryX=0;entryY=0.25;entryDx=0;entryDy=0;" parent="1" source="B7g81SeDOoeG7HOJfXg6-28" target="B7g81SeDOoeG7HOJfXg6-16" edge="1">
          <mxGeometry width="50" height="50" relative="1" as="geometry">
            <mxPoint x="-1341" y="306" as="sourcePoint" />
            <mxPoint x="-1290" y="250" as="targetPoint" />
          </mxGeometry>
        </mxCell>
        <mxCell id="B7g81SeDOoeG7HOJfXg6-33" value="" style="endArrow=none;html=1;rounded=0;entryX=0.725;entryY=0.988;entryDx=0;entryDy=0;entryPerimeter=0;exitX=0;exitY=0;exitDx=0;exitDy=0;" parent="1" target="B7g81SeDOoeG7HOJfXg6-29" edge="1" source="B7g81SeDOoeG7HOJfXg6-16">
          <mxGeometry width="50" height="50" relative="1" as="geometry">
            <mxPoint x="-1250" y="350" as="sourcePoint" />
            <mxPoint x="-1230" y="310" as="targetPoint" />
          </mxGeometry>
        </mxCell>
        <mxCell id="B7g81SeDOoeG7HOJfXg6-34" value="" style="endArrow=none;html=1;rounded=0;entryX=0;entryY=0.5;entryDx=0;entryDy=0;exitX=1;exitY=0.5;exitDx=0;exitDy=0;" parent="1" source="B7g81SeDOoeG7HOJfXg6-35" target="B7g81SeDOoeG7HOJfXg6-16" edge="1">
          <mxGeometry width="50" height="50" relative="1" as="geometry">
            <mxPoint x="-1500" y="400" as="sourcePoint" />
            <mxPoint x="-1450" y="350" as="targetPoint" />
          </mxGeometry>
        </mxCell>
        <mxCell id="B7g81SeDOoeG7HOJfXg6-36" value="ID" style="ellipse;whiteSpace=wrap;html=1;fontStyle=4" parent="1" vertex="1">
          <mxGeometry x="-1780" y="130" width="120" height="80" as="geometry" />
        </mxCell>
        <mxCell id="B7g81SeDOoeG7HOJfXg6-37" value="DESCRIPCION" style="ellipse;whiteSpace=wrap;html=1;" parent="1" vertex="1">
          <mxGeometry x="-1840" y="220" width="120" height="80" as="geometry" />
        </mxCell>
        <mxCell id="B7g81SeDOoeG7HOJfXg6-38" value="" style="endArrow=none;html=1;rounded=0;entryX=0;entryY=0;entryDx=0;entryDy=0;exitX=0.933;exitY=0.775;exitDx=0;exitDy=0;exitPerimeter=0;" parent="1" source="B7g81SeDOoeG7HOJfXg6-36" target="B7g81SeDOoeG7HOJfXg6-30" edge="1">
          <mxGeometry width="50" height="50" relative="1" as="geometry">
            <mxPoint x="-1630" y="270" as="sourcePoint" />
            <mxPoint x="-1580" y="220" as="targetPoint" />
          </mxGeometry>
        </mxCell>
        <mxCell id="B7g81SeDOoeG7HOJfXg6-39" value="" style="endArrow=none;html=1;rounded=0;entryX=0;entryY=0.5;entryDx=0;entryDy=0;" parent="1" target="B7g81SeDOoeG7HOJfXg6-30" edge="1" source="B7g81SeDOoeG7HOJfXg6-37">
          <mxGeometry width="50" height="50" relative="1" as="geometry">
            <mxPoint x="-1670" y="405" as="sourcePoint" />
            <mxPoint x="-1620" y="355" as="targetPoint" />
          </mxGeometry>
        </mxCell>
        <mxCell id="B7g81SeDOoeG7HOJfXg6-40" value="TIPO_COMPUESTO" style="rounded=0;whiteSpace=wrap;html=1;" parent="1" vertex="1">
          <mxGeometry x="-177.5" y="625" width="120" height="60" as="geometry" />
        </mxCell>
        <mxCell id="B7g81SeDOoeG7HOJfXg6-41" value="" style="endArrow=none;html=1;rounded=0;entryX=0;entryY=0.5;entryDx=0;entryDy=0;" parent="1" target="B7g81SeDOoeG7HOJfXg6-40" edge="1">
          <mxGeometry width="50" height="50" relative="1" as="geometry">
            <mxPoint x="-700" y="650" as="sourcePoint" />
            <mxPoint x="-650" y="600" as="targetPoint" />
          </mxGeometry>
        </mxCell>
        <mxCell id="B7g81SeDOoeG7HOJfXg6-42" value="TIENE" style="rhombus;whiteSpace=wrap;html=1;" parent="1" vertex="1">
          <mxGeometry x="-337.5" y="615" width="80" height="80" as="geometry" />
        </mxCell>
        <mxCell id="B7g81SeDOoeG7HOJfXg6-43" value="ID" style="ellipse;whiteSpace=wrap;html=1;fontStyle=4" parent="1" vertex="1">
          <mxGeometry x="25" y="590" width="80" height="60" as="geometry" />
        </mxCell>
        <mxCell id="B7g81SeDOoeG7HOJfXg6-44" value="DESCRIPCION" style="ellipse;whiteSpace=wrap;html=1;" parent="1" vertex="1">
          <mxGeometry x="70" y="655" width="90" height="70" as="geometry" />
        </mxCell>
        <mxCell id="B7g81SeDOoeG7HOJfXg6-45" value="" style="endArrow=none;html=1;rounded=0;exitX=1;exitY=0.25;exitDx=0;exitDy=0;entryX=0.025;entryY=0.633;entryDx=0;entryDy=0;entryPerimeter=0;" parent="1" source="B7g81SeDOoeG7HOJfXg6-40" target="B7g81SeDOoeG7HOJfXg6-43" edge="1">
          <mxGeometry width="50" height="50" relative="1" as="geometry">
            <mxPoint x="-17.5" y="730" as="sourcePoint" />
            <mxPoint x="6.5" y="622" as="targetPoint" />
          </mxGeometry>
        </mxCell>
        <mxCell id="B7g81SeDOoeG7HOJfXg6-46" value="" style="endArrow=none;html=1;rounded=0;exitX=1;exitY=0.75;exitDx=0;exitDy=0;entryX=0;entryY=0.5;entryDx=0;entryDy=0;" parent="1" source="B7g81SeDOoeG7HOJfXg6-40" target="B7g81SeDOoeG7HOJfXg6-44" edge="1">
          <mxGeometry width="50" height="50" relative="1" as="geometry">
            <mxPoint x="732.5" y="770" as="sourcePoint" />
            <mxPoint x="832.5" y="750" as="targetPoint" />
          </mxGeometry>
        </mxCell>
        <mxCell id="B7g81SeDOoeG7HOJfXg6-47" value="ORIGEN&lt;br&gt;COMPUESTO" style="rounded=0;whiteSpace=wrap;html=1;" parent="1" vertex="1">
          <mxGeometry x="-930" y="980" width="120" height="60" as="geometry" />
        </mxCell>
        <mxCell id="B7g81SeDOoeG7HOJfXg6-48" value="" style="endArrow=none;html=1;rounded=0;exitX=0.5;exitY=0;exitDx=0;exitDy=0;" parent="1" source="B7g81SeDOoeG7HOJfXg6-49" edge="1">
          <mxGeometry width="50" height="50" relative="1" as="geometry">
            <mxPoint x="-810" y="730" as="sourcePoint" />
            <mxPoint x="-760" y="680" as="targetPoint" />
            <Array as="points" />
          </mxGeometry>
        </mxCell>
        <mxCell id="B7g81SeDOoeG7HOJfXg6-50" value="ORIGEN" style="ellipse;whiteSpace=wrap;html=1;" parent="1" vertex="1">
          <mxGeometry x="-1038" y="1100" width="90" height="60" as="geometry" />
        </mxCell>
        <mxCell id="B7g81SeDOoeG7HOJfXg6-51" value="&lt;u&gt;ID&lt;/u&gt;" style="ellipse;whiteSpace=wrap;html=1;" parent="1" vertex="1">
          <mxGeometry x="-875" y="1110" width="50" height="50" as="geometry" />
        </mxCell>
        <mxCell id="B7g81SeDOoeG7HOJfXg6-52" value="" style="endArrow=none;html=1;rounded=0;exitX=0.5;exitY=0;exitDx=0;exitDy=0;" parent="1" source="B7g81SeDOoeG7HOJfXg6-51" edge="1">
          <mxGeometry width="50" height="50" relative="1" as="geometry">
            <mxPoint x="-910" y="1090" as="sourcePoint" />
            <mxPoint x="-860" y="1040" as="targetPoint" />
          </mxGeometry>
        </mxCell>
        <mxCell id="B7g81SeDOoeG7HOJfXg6-53" value="" style="endArrow=none;html=1;rounded=0;entryX=0.622;entryY=0.033;entryDx=0;entryDy=0;entryPerimeter=0;exitX=0;exitY=1;exitDx=0;exitDy=0;" parent="1" source="B7g81SeDOoeG7HOJfXg6-47" target="B7g81SeDOoeG7HOJfXg6-50" edge="1">
          <mxGeometry width="50" height="50" relative="1" as="geometry">
            <mxPoint x="-700" y="930" as="sourcePoint" />
            <mxPoint x="-650" y="880" as="targetPoint" />
          </mxGeometry>
        </mxCell>
        <mxCell id="QasiygPqZW1ddP8b3eg4-4" value="" style="endArrow=none;html=1;rounded=0;entryX=0;entryY=0.383;entryDx=0;entryDy=0;entryPerimeter=0;exitX=1;exitY=0.5;exitDx=0;exitDy=0;" parent="1" target="B7g81SeDOoeG7HOJfXg6-18" edge="1" source="B7g81SeDOoeG7HOJfXg6-16">
          <mxGeometry relative="1" as="geometry">
            <mxPoint x="-460" y="470" as="sourcePoint" />
            <mxPoint x="-350" y="499.5" as="targetPoint" />
            <Array as="points">
              <mxPoint x="-1100" y="180" />
            </Array>
          </mxGeometry>
        </mxCell>
        <mxCell id="QasiygPqZW1ddP8b3eg4-5" value="N" style="resizable=0;html=1;whiteSpace=wrap;align=left;verticalAlign=bottom;" parent="QasiygPqZW1ddP8b3eg4-4" connectable="0" vertex="1">
          <mxGeometry x="-1" relative="1" as="geometry" />
        </mxCell>
        <mxCell id="QasiygPqZW1ddP8b3eg4-6" value="N" style="resizable=0;html=1;whiteSpace=wrap;align=right;verticalAlign=bottom;" parent="QasiygPqZW1ddP8b3eg4-4" connectable="0" vertex="1">
          <mxGeometry x="1" relative="1" as="geometry" />
        </mxCell>
        <mxCell id="QasiygPqZW1ddP8b3eg4-7" value="PROFESIONAL" style="whiteSpace=wrap;html=1;align=center;" parent="1" vertex="1">
          <mxGeometry x="60" y="320" width="130" height="60" as="geometry" />
        </mxCell>
        <mxCell id="QasiygPqZW1ddP8b3eg4-8" value="NOMBRE" style="ellipse;whiteSpace=wrap;html=1;align=center;" parent="1" vertex="1">
          <mxGeometry x="120" y="170" width="100" height="40" as="geometry" />
        </mxCell>
        <mxCell id="QasiygPqZW1ddP8b3eg4-9" value="APELLIDO" style="ellipse;whiteSpace=wrap;html=1;align=center;" parent="1" vertex="1">
          <mxGeometry x="15" y="190" width="100" height="40" as="geometry" />
        </mxCell>
        <mxCell id="QasiygPqZW1ddP8b3eg4-10" value="ESPECIALIDAD" style="whiteSpace=wrap;html=1;align=center;" parent="1" vertex="1">
          <mxGeometry x="580" y="320" width="125" height="60" as="geometry" />
        </mxCell>
        <mxCell id="QasiygPqZW1ddP8b3eg4-11" value="" style="endArrow=none;html=1;rounded=0;entryX=0;entryY=0.5;entryDx=0;entryDy=0;" parent="1" source="QasiygPqZW1ddP8b3eg4-19" target="QasiygPqZW1ddP8b3eg4-10" edge="1">
          <mxGeometry relative="1" as="geometry">
            <mxPoint x="190" y="350" as="sourcePoint" />
            <mxPoint x="350" y="350" as="targetPoint" />
          </mxGeometry>
        </mxCell>
        <mxCell id="QasiygPqZW1ddP8b3eg4-13" value="N" style="resizable=0;html=1;whiteSpace=wrap;align=right;verticalAlign=bottom;" parent="QasiygPqZW1ddP8b3eg4-11" connectable="0" vertex="1">
          <mxGeometry x="1" relative="1" as="geometry" />
        </mxCell>
        <mxCell id="QasiygPqZW1ddP8b3eg4-14" value="" style="endArrow=none;html=1;rounded=0;entryX=0;entryY=0;entryDx=0;entryDy=0;exitX=1;exitY=1;exitDx=0;exitDy=0;" parent="1" source="B7g81SeDOoeG7HOJfXg6-3" target="QasiygPqZW1ddP8b3eg4-7" edge="1">
          <mxGeometry relative="1" as="geometry">
            <mxPoint x="-150" y="199" as="sourcePoint" />
            <mxPoint x="10" y="199" as="targetPoint" />
          </mxGeometry>
        </mxCell>
        <mxCell id="QasiygPqZW1ddP8b3eg4-16" value="MATRICULA&lt;br&gt;NACIONAL" style="ellipse;whiteSpace=wrap;html=1;align=center;fontStyle=0" parent="1" vertex="1">
          <mxGeometry x="145" y="410" width="110" height="50" as="geometry" />
        </mxCell>
        <mxCell id="QasiygPqZW1ddP8b3eg4-17" value="PUEDE&lt;br&gt;TENER" style="rhombus;whiteSpace=wrap;html=1;" parent="1" vertex="1">
          <mxGeometry x="-1140" y="155" width="80" height="55" as="geometry" />
        </mxCell>
        <mxCell id="QasiygPqZW1ddP8b3eg4-20" value="" style="endArrow=none;html=1;rounded=0;entryX=0;entryY=0.5;entryDx=0;entryDy=0;" parent="1" target="QasiygPqZW1ddP8b3eg4-19" edge="1">
          <mxGeometry relative="1" as="geometry">
            <mxPoint x="190" y="350" as="sourcePoint" />
            <mxPoint x="380" y="350" as="targetPoint" />
          </mxGeometry>
        </mxCell>
        <mxCell id="QasiygPqZW1ddP8b3eg4-21" value="N" style="resizable=0;html=1;whiteSpace=wrap;align=left;verticalAlign=bottom;" parent="QasiygPqZW1ddP8b3eg4-20" connectable="0" vertex="1">
          <mxGeometry x="-1" relative="1" as="geometry" />
        </mxCell>
        <mxCell id="QasiygPqZW1ddP8b3eg4-19" value="" style="rhombus;whiteSpace=wrap;html=1;" parent="1" vertex="1">
          <mxGeometry x="360" y="320" width="60" height="60" as="geometry" />
        </mxCell>
        <mxCell id="QasiygPqZW1ddP8b3eg4-24" value="MATRICULA&lt;br&gt;PROVINCIAL" style="ellipse;whiteSpace=wrap;html=1;align=center;fontStyle=0;" parent="1" vertex="1">
          <mxGeometry x="20" y="410" width="110" height="50" as="geometry" />
        </mxCell>
        <mxCell id="QasiygPqZW1ddP8b3eg4-25" value="" style="endArrow=none;html=1;rounded=0;exitX=0.427;exitY=-0.04;exitDx=0;exitDy=0;exitPerimeter=0;entryX=0.1;entryY=1;entryDx=0;entryDy=0;entryPerimeter=0;" parent="1" source="QasiygPqZW1ddP8b3eg4-24" target="QasiygPqZW1ddP8b3eg4-7" edge="1">
          <mxGeometry relative="1" as="geometry">
            <mxPoint y="380" as="sourcePoint" />
            <mxPoint x="60" y="380" as="targetPoint" />
          </mxGeometry>
        </mxCell>
        <mxCell id="QasiygPqZW1ddP8b3eg4-26" value="" style="endArrow=none;html=1;rounded=0;entryX=0.309;entryY=0;entryDx=0;entryDy=0;entryPerimeter=0;" parent="1" target="QasiygPqZW1ddP8b3eg4-16" edge="1">
          <mxGeometry relative="1" as="geometry">
            <mxPoint x="160" y="380" as="sourcePoint" />
            <mxPoint x="190" y="410" as="targetPoint" />
          </mxGeometry>
        </mxCell>
        <mxCell id="QasiygPqZW1ddP8b3eg4-27" value="CELULAR" style="ellipse;whiteSpace=wrap;html=1;align=center;" parent="1" vertex="1">
          <mxGeometry x="240" y="170" width="100" height="40" as="geometry" />
        </mxCell>
        <mxCell id="QasiygPqZW1ddP8b3eg4-28" value="EMAIL" style="ellipse;whiteSpace=wrap;html=1;align=center;" parent="1" vertex="1">
          <mxGeometry x="240" y="230" width="100" height="40" as="geometry" />
        </mxCell>
        <mxCell id="QasiygPqZW1ddP8b3eg4-29" value="DIRECCION&lt;br&gt;POSTAL" style="ellipse;whiteSpace=wrap;html=1;align=center;" parent="1" vertex="1">
          <mxGeometry x="240" y="280" width="100" height="40" as="geometry" />
        </mxCell>
        <mxCell id="QasiygPqZW1ddP8b3eg4-30" value="" style="endArrow=none;html=1;rounded=0;entryX=0.25;entryY=0;entryDx=0;entryDy=0;" parent="1" target="QasiygPqZW1ddP8b3eg4-7" edge="1">
          <mxGeometry relative="1" as="geometry">
            <mxPoint x="80" y="230" as="sourcePoint" />
            <mxPoint x="240" y="230" as="targetPoint" />
          </mxGeometry>
        </mxCell>
        <mxCell id="QasiygPqZW1ddP8b3eg4-31" value="" style="endArrow=none;html=1;rounded=0;entryX=0.5;entryY=0;entryDx=0;entryDy=0;" parent="1" target="QasiygPqZW1ddP8b3eg4-7" edge="1">
          <mxGeometry relative="1" as="geometry">
            <mxPoint x="165" y="209" as="sourcePoint" />
            <mxPoint x="325" y="209" as="targetPoint" />
          </mxGeometry>
        </mxCell>
        <mxCell id="QasiygPqZW1ddP8b3eg4-32" value="" style="endArrow=none;html=1;rounded=0;exitX=0.646;exitY=-0.017;exitDx=0;exitDy=0;exitPerimeter=0;" parent="1" source="QasiygPqZW1ddP8b3eg4-7" edge="1">
          <mxGeometry relative="1" as="geometry">
            <mxPoint x="90" y="200" as="sourcePoint" />
            <mxPoint x="250" y="200" as="targetPoint" />
          </mxGeometry>
        </mxCell>
        <mxCell id="QasiygPqZW1ddP8b3eg4-33" value="" style="endArrow=none;html=1;rounded=0;entryX=0;entryY=0.675;entryDx=0;entryDy=0;entryPerimeter=0;" parent="1" target="QasiygPqZW1ddP8b3eg4-28" edge="1">
          <mxGeometry relative="1" as="geometry">
            <mxPoint x="150" y="320" as="sourcePoint" />
            <mxPoint x="310" y="320" as="targetPoint" />
          </mxGeometry>
        </mxCell>
        <mxCell id="QasiygPqZW1ddP8b3eg4-34" value="" style="endArrow=none;html=1;rounded=0;entryX=0;entryY=0.5;entryDx=0;entryDy=0;" parent="1" target="QasiygPqZW1ddP8b3eg4-29" edge="1">
          <mxGeometry relative="1" as="geometry">
            <mxPoint x="190" y="320" as="sourcePoint" />
            <mxPoint x="350" y="320" as="targetPoint" />
          </mxGeometry>
        </mxCell>
        <mxCell id="QasiygPqZW1ddP8b3eg4-39" value="" style="endArrow=none;html=1;rounded=0;entryX=0.008;entryY=0.617;entryDx=0;entryDy=0;entryPerimeter=0;exitX=1;exitY=0.5;exitDx=0;exitDy=0;" parent="1" source="QasiygPqZW1ddP8b3eg4-43" target="QasiygPqZW1ddP8b3eg4-7" edge="1">
          <mxGeometry relative="1" as="geometry">
            <mxPoint x="-150" y="499.5" as="sourcePoint" />
            <mxPoint x="50" y="340" as="targetPoint" />
          </mxGeometry>
        </mxCell>
        <mxCell id="QasiygPqZW1ddP8b3eg4-41" value="1" style="resizable=0;html=1;whiteSpace=wrap;align=right;verticalAlign=bottom;" parent="QasiygPqZW1ddP8b3eg4-39" connectable="0" vertex="1">
          <mxGeometry x="1" relative="1" as="geometry">
            <mxPoint x="-1" y="3" as="offset" />
          </mxGeometry>
        </mxCell>
        <mxCell id="QasiygPqZW1ddP8b3eg4-44" value="" style="endArrow=none;html=1;rounded=0;entryX=0;entryY=0.5;entryDx=0;entryDy=0;" parent="1" target="QasiygPqZW1ddP8b3eg4-43" edge="1">
          <mxGeometry relative="1" as="geometry">
            <mxPoint x="-850" y="420" as="sourcePoint" />
            <mxPoint x="61" y="357" as="targetPoint" />
          </mxGeometry>
        </mxCell>
        <mxCell id="QasiygPqZW1ddP8b3eg4-45" value="N" style="resizable=0;html=1;whiteSpace=wrap;align=left;verticalAlign=bottom;" parent="QasiygPqZW1ddP8b3eg4-44" connectable="0" vertex="1">
          <mxGeometry x="-1" relative="1" as="geometry">
            <mxPoint x="190" y="-235" as="offset" />
          </mxGeometry>
        </mxCell>
        <mxCell id="QasiygPqZW1ddP8b3eg4-43" value="INDICA" style="rhombus;whiteSpace=wrap;html=1;" parent="1" vertex="1">
          <mxGeometry x="-433" y="390" width="80" height="80" as="geometry" />
        </mxCell>
        <mxCell id="QasiygPqZW1ddP8b3eg4-49" value="LUGAR&amp;nbsp;&lt;br&gt;DEL&lt;br&gt;CUERPO" style="ellipse;whiteSpace=wrap;html=1;" parent="1" vertex="1">
          <mxGeometry x="-1160" y="255" width="83" height="60" as="geometry" />
        </mxCell>
        <mxCell id="QasiygPqZW1ddP8b3eg4-50" value="EFECTO&lt;br&gt;ESPERADO&lt;br&gt;PRINCIPAL" style="ellipse;whiteSpace=wrap;html=1;" parent="1" vertex="1">
          <mxGeometry x="-740" y="225" width="90" height="70" as="geometry" />
        </mxCell>
        <mxCell id="QasiygPqZW1ddP8b3eg4-53" value="SUPUESTO&lt;br&gt;O&lt;br&gt;COMPROBADO" style="ellipse;whiteSpace=wrap;html=1;" parent="1" vertex="1">
          <mxGeometry x="-790" y="75" width="100" height="70" as="geometry" />
        </mxCell>
        <mxCell id="QasiygPqZW1ddP8b3eg4-55" value="" style="endArrow=none;html=1;rounded=0;entryX=0.5;entryY=1;entryDx=0;entryDy=0;exitX=1;exitY=0;exitDx=0;exitDy=0;" parent="1" source="QasiygPqZW1ddP8b3eg4-52" target="QasiygPqZW1ddP8b3eg4-53" edge="1">
          <mxGeometry width="50" height="50" relative="1" as="geometry">
            <mxPoint x="-602.5" y="100" as="sourcePoint" />
            <mxPoint x="-722.5" y="120" as="targetPoint" />
          </mxGeometry>
        </mxCell>
        <mxCell id="QasiygPqZW1ddP8b3eg4-57" value="" style="endArrow=none;html=1;rounded=0;entryX=0.067;entryY=0.286;entryDx=0;entryDy=0;entryPerimeter=0;" parent="1" target="QasiygPqZW1ddP8b3eg4-50" edge="1">
          <mxGeometry width="50" height="50" relative="1" as="geometry">
            <mxPoint x="-900" y="200" as="sourcePoint" />
            <mxPoint x="-213" y="340" as="targetPoint" />
          </mxGeometry>
        </mxCell>
        <mxCell id="QasiygPqZW1ddP8b3eg4-58" value="" style="endArrow=none;html=1;rounded=0;entryX=0.735;entryY=0.033;entryDx=0;entryDy=0;entryPerimeter=0;exitX=0;exitY=1;exitDx=0;exitDy=0;" parent="1" source="B7g81SeDOoeG7HOJfXg6-18" target="QasiygPqZW1ddP8b3eg4-49" edge="1">
          <mxGeometry width="50" height="50" relative="1" as="geometry">
            <mxPoint x="-353" y="400" as="sourcePoint" />
            <mxPoint x="-303" y="350" as="targetPoint" />
            <Array as="points" />
          </mxGeometry>
        </mxCell>
        <mxCell id="QasiygPqZW1ddP8b3eg4-59" value="" style="endArrow=none;html=1;rounded=0;exitX=0.25;exitY=0;exitDx=0;exitDy=0;" parent="1" source="B7g81SeDOoeG7HOJfXg6-18" edge="1">
          <mxGeometry width="50" height="50" relative="1" as="geometry">
            <mxPoint x="-1000" y="150" as="sourcePoint" />
            <mxPoint x="-990" y="70" as="targetPoint" />
          </mxGeometry>
        </mxCell>
        <mxCell id="QasiygPqZW1ddP8b3eg4-60" value="CODIGO&lt;br&gt;TRATAMIENTO" style="ellipse;whiteSpace=wrap;html=1;align=center;fontStyle=0;" parent="1" vertex="1">
          <mxGeometry x="-950" y="80" width="100" height="60" as="geometry" />
        </mxCell>
        <mxCell id="QasiygPqZW1ddP8b3eg4-61" value="" style="endArrow=none;html=1;rounded=0;entryX=0.38;entryY=0.983;entryDx=0;entryDy=0;exitX=0.75;exitY=0;exitDx=0;exitDy=0;entryPerimeter=0;" parent="1" source="B7g81SeDOoeG7HOJfXg6-18" target="QasiygPqZW1ddP8b3eg4-60" edge="1">
          <mxGeometry width="50" height="50" relative="1" as="geometry">
            <mxPoint x="-150" y="520" as="sourcePoint" />
            <mxPoint x="-100" y="470" as="targetPoint" />
          </mxGeometry>
        </mxCell>
        <mxCell id="QasiygPqZW1ddP8b3eg4-62" value="FUE&lt;br&gt;EXITOSO" style="ellipse;whiteSpace=wrap;html=1;" parent="1" vertex="1">
          <mxGeometry x="-1020" y="770" width="120" height="80" as="geometry" />
        </mxCell>
        <mxCell id="QasiygPqZW1ddP8b3eg4-63" value="" style="endArrow=none;html=1;rounded=0;" parent="1" edge="1">
          <mxGeometry width="50" height="50" relative="1" as="geometry">
            <mxPoint x="-963" y="770" as="sourcePoint" />
            <mxPoint x="-963" y="680" as="targetPoint" />
          </mxGeometry>
        </mxCell>
        <mxCell id="QasiygPqZW1ddP8b3eg4-64" value="DIAGNOSTICO&lt;br&gt;PRESUNTIVO" style="ellipse;whiteSpace=wrap;html=1;" parent="1" vertex="1">
          <mxGeometry x="-1223" y="760" width="120" height="80" as="geometry" />
        </mxCell>
        <mxCell id="QasiygPqZW1ddP8b3eg4-65" value="" style="endArrow=none;html=1;rounded=0;exitX=0.5;exitY=0;exitDx=0;exitDy=0;" parent="1" source="QasiygPqZW1ddP8b3eg4-64" edge="1">
          <mxGeometry width="50" height="50" relative="1" as="geometry">
            <mxPoint x="-1213" y="730" as="sourcePoint" />
            <mxPoint x="-1163" y="680" as="targetPoint" />
          </mxGeometry>
        </mxCell>
        <mxCell id="QasiygPqZW1ddP8b3eg4-66" value="1" style="text;html=1;strokeColor=none;fillColor=none;align=center;verticalAlign=middle;whiteSpace=wrap;rounded=0;" parent="1" vertex="1">
          <mxGeometry x="-222.5" y="625" width="60" height="30" as="geometry" />
        </mxCell>
        <mxCell id="QasiygPqZW1ddP8b3eg4-67" value="N" style="text;html=1;strokeColor=none;fillColor=none;align=center;verticalAlign=middle;whiteSpace=wrap;rounded=0;" parent="1" vertex="1">
          <mxGeometry x="-715" y="620" width="60" height="30" as="geometry" />
        </mxCell>
        <mxCell id="QasiygPqZW1ddP8b3eg4-69" value="N" style="text;html=1;strokeColor=none;fillColor=none;align=center;verticalAlign=middle;whiteSpace=wrap;rounded=0;" parent="1" vertex="1">
          <mxGeometry x="-810" y="680" width="60" height="30" as="geometry" />
        </mxCell>
        <mxCell id="QasiygPqZW1ddP8b3eg4-70" value="1" style="text;html=1;strokeColor=none;fillColor=none;align=center;verticalAlign=middle;whiteSpace=wrap;rounded=0;" parent="1" vertex="1">
          <mxGeometry x="-1530" y="235" width="60" height="30" as="geometry" />
        </mxCell>
        <mxCell id="QasiygPqZW1ddP8b3eg4-71" value="N" style="text;html=1;strokeColor=none;fillColor=none;align=center;verticalAlign=middle;whiteSpace=wrap;rounded=0;" parent="1" vertex="1">
          <mxGeometry x="-1330" y="185" width="60" height="30" as="geometry" />
        </mxCell>
        <mxCell id="QasiygPqZW1ddP8b3eg4-72" value="CANTIDAD" style="ellipse;whiteSpace=wrap;html=1;" parent="1" vertex="1">
          <mxGeometry x="-327.5" y="530" width="70" height="50" as="geometry" />
        </mxCell>
        <mxCell id="QasiygPqZW1ddP8b3eg4-73" value="" style="endArrow=none;html=1;rounded=0;exitX=1;exitY=0.75;exitDx=0;exitDy=0;entryX=0.5;entryY=0;entryDx=0;entryDy=0;" parent="1" target="B7g81SeDOoeG7HOJfXg6-42" edge="1">
          <mxGeometry width="50" height="50" relative="1" as="geometry">
            <mxPoint x="-302" y="580" as="sourcePoint" />
            <mxPoint x="-203" y="612" as="targetPoint" />
          </mxGeometry>
        </mxCell>
        <mxCell id="QasiygPqZW1ddP8b3eg4-74" value="FABRICANTE" style="ellipse;whiteSpace=wrap;html=1;" parent="1" vertex="1">
          <mxGeometry x="-495" y="680" width="91" height="60" as="geometry" />
        </mxCell>
        <mxCell id="QasiygPqZW1ddP8b3eg4-75" value="PARTIDA" style="ellipse;whiteSpace=wrap;html=1;" parent="1" vertex="1">
          <mxGeometry x="-780" y="755" width="80" height="60" as="geometry" />
        </mxCell>
        <mxCell id="QasiygPqZW1ddP8b3eg4-76" value="NRO&lt;br&gt;LOTE" style="ellipse;whiteSpace=wrap;html=1;" parent="1" vertex="1">
          <mxGeometry x="-530" y="755" width="90" height="50" as="geometry" />
        </mxCell>
        <mxCell id="QasiygPqZW1ddP8b3eg4-77" value="FECHA&lt;br&gt;VENCIMIENTO" style="ellipse;whiteSpace=wrap;html=1;" parent="1" vertex="1">
          <mxGeometry x="-735" y="500" width="105" height="60" as="geometry" />
        </mxCell>
        <mxCell id="QasiygPqZW1ddP8b3eg4-79" value="CODIGO&lt;br&gt;DE&lt;br&gt;BARRAS" style="ellipse;whiteSpace=wrap;html=1;align=center;fontStyle=4;" parent="1" vertex="1">
          <mxGeometry x="-590" y="540" width="110" height="60" as="geometry" />
        </mxCell>
        <mxCell id="QasiygPqZW1ddP8b3eg4-80" value="ARTIFICIAL&lt;br&gt;O&lt;br&gt;NATURAL" style="ellipse;whiteSpace=wrap;html=1;align=center;" parent="1" vertex="1">
          <mxGeometry x="-670" y="780" width="110" height="60" as="geometry" />
        </mxCell>
        <mxCell id="QasiygPqZW1ddP8b3eg4-68" value="1" style="text;html=1;strokeColor=none;fillColor=none;align=center;verticalAlign=middle;whiteSpace=wrap;rounded=0;" parent="1" vertex="1">
          <mxGeometry x="-880" y="960" width="60" height="30" as="geometry" />
        </mxCell>
        <mxCell id="QasiygPqZW1ddP8b3eg4-83" value="" style="endArrow=none;html=1;rounded=0;exitX=0;exitY=0;exitDx=0;exitDy=0;entryX=0.055;entryY=0.783;entryDx=0;entryDy=0;entryPerimeter=0;" parent="1" source="QasiygPqZW1ddP8b3eg4-67" target="QasiygPqZW1ddP8b3eg4-79" edge="1">
          <mxGeometry relative="1" as="geometry">
            <mxPoint x="-745" y="574" as="sourcePoint" />
            <mxPoint x="-585" y="574" as="targetPoint" />
          </mxGeometry>
        </mxCell>
        <mxCell id="QasiygPqZW1ddP8b3eg4-84" value="" style="endArrow=none;html=1;rounded=0;exitX=0.75;exitY=0;exitDx=0;exitDy=0;entryX=0.343;entryY=0.967;entryDx=0;entryDy=0;entryPerimeter=0;" parent="1" source="B7g81SeDOoeG7HOJfXg6-21" target="QasiygPqZW1ddP8b3eg4-77" edge="1">
          <mxGeometry relative="1" as="geometry">
            <mxPoint x="-843" y="560" as="sourcePoint" />
            <mxPoint x="-683" y="560" as="targetPoint" />
          </mxGeometry>
        </mxCell>
        <mxCell id="QasiygPqZW1ddP8b3eg4-85" value="" style="endArrow=none;html=1;rounded=0;entryX=0;entryY=0.5;entryDx=0;entryDy=0;" parent="1" target="QasiygPqZW1ddP8b3eg4-74" edge="1">
          <mxGeometry relative="1" as="geometry">
            <mxPoint x="-700" y="670" as="sourcePoint" />
            <mxPoint x="-540" y="670" as="targetPoint" />
          </mxGeometry>
        </mxCell>
        <mxCell id="QasiygPqZW1ddP8b3eg4-86" value="" style="endArrow=none;html=1;rounded=0;entryX=0;entryY=0;entryDx=0;entryDy=0;" parent="1" target="QasiygPqZW1ddP8b3eg4-76" edge="1">
          <mxGeometry relative="1" as="geometry">
            <mxPoint x="-700" y="679" as="sourcePoint" />
            <mxPoint x="-540" y="679" as="targetPoint" />
          </mxGeometry>
        </mxCell>
        <mxCell id="QasiygPqZW1ddP8b3eg4-87" value="" style="endArrow=none;html=1;rounded=0;entryX=0.327;entryY=0.031;entryDx=0;entryDy=0;entryPerimeter=0;" parent="1" target="QasiygPqZW1ddP8b3eg4-80" edge="1">
          <mxGeometry relative="1" as="geometry">
            <mxPoint x="-715" y="680" as="sourcePoint" />
            <mxPoint x="-555" y="680" as="targetPoint" />
          </mxGeometry>
        </mxCell>
        <mxCell id="QasiygPqZW1ddP8b3eg4-90" value="" style="endArrow=none;html=1;rounded=0;entryX=0.5;entryY=0;entryDx=0;entryDy=0;" parent="1" target="QasiygPqZW1ddP8b3eg4-75" edge="1">
          <mxGeometry relative="1" as="geometry">
            <mxPoint x="-745" y="680" as="sourcePoint" />
            <mxPoint x="-585" y="680" as="targetPoint" />
          </mxGeometry>
        </mxCell>
        <mxCell id="QasiygPqZW1ddP8b3eg4-52" value="CONTRA&lt;br&gt;INDICACION" style="rhombus;whiteSpace=wrap;html=1;" parent="1" vertex="1">
          <mxGeometry x="-820" y="152.5" width="90" height="65" as="geometry" />
        </mxCell>
        <mxCell id="QasiygPqZW1ddP8b3eg4-92" value="" style="endArrow=none;html=1;rounded=0;exitX=1;exitY=0.5;exitDx=0;exitDy=0;entryX=0;entryY=0.5;entryDx=0;entryDy=0;" parent="1" source="QasiygPqZW1ddP8b3eg4-52" edge="1" target="B7g81SeDOoeG7HOJfXg6-8">
          <mxGeometry width="50" height="50" relative="1" as="geometry">
            <mxPoint x="-590" y="93" as="sourcePoint" />
            <mxPoint x="-750" y="185" as="targetPoint" />
          </mxGeometry>
        </mxCell>
        <mxCell id="QasiygPqZW1ddP8b3eg4-93" value="" style="endArrow=none;html=1;rounded=0;exitX=1;exitY=0.5;exitDx=0;exitDy=0;entryX=0;entryY=0.5;entryDx=0;entryDy=0;" parent="1" source="B7g81SeDOoeG7HOJfXg6-18" target="QasiygPqZW1ddP8b3eg4-52" edge="1">
          <mxGeometry width="50" height="50" relative="1" as="geometry">
            <mxPoint x="-520" y="321.5" as="sourcePoint" />
            <mxPoint x="-397" y="278.5" as="targetPoint" />
          </mxGeometry>
        </mxCell>
        <mxCell id="QasiygPqZW1ddP8b3eg4-94" value="N" style="text;html=1;strokeColor=none;fillColor=none;align=center;verticalAlign=middle;whiteSpace=wrap;rounded=0;" parent="1" vertex="1">
          <mxGeometry x="-920" y="160" width="60" height="30" as="geometry" />
        </mxCell>
        <mxCell id="QasiygPqZW1ddP8b3eg4-95" value="N" style="text;html=1;strokeColor=none;fillColor=none;align=center;verticalAlign=middle;whiteSpace=wrap;rounded=0;" parent="1" vertex="1">
          <mxGeometry x="-970" y="220" width="60" height="30" as="geometry" />
        </mxCell>
        <mxCell id="QasiygPqZW1ddP8b3eg4-97" value="" style="endArrow=none;html=1;rounded=0;entryX=-0.025;entryY=0.65;entryDx=0;entryDy=0;entryPerimeter=0;" parent="1" target="B7g81SeDOoeG7HOJfXg6-19" edge="1">
          <mxGeometry width="50" height="50" relative="1" as="geometry">
            <mxPoint x="-1420" y="660" as="sourcePoint" />
            <mxPoint x="-1370" y="610" as="targetPoint" />
          </mxGeometry>
        </mxCell>
        <mxCell id="QasiygPqZW1ddP8b3eg4-98" value="CONFIRMA" style="rhombus;whiteSpace=wrap;html=1;" parent="1" vertex="1">
          <mxGeometry x="-1360" y="620" width="80" height="80" as="geometry" />
        </mxCell>
        <mxCell id="QasiygPqZW1ddP8b3eg4-99" value="CONFIRMACION&lt;br&gt;DE&lt;br&gt;DIAGNOSTICO" style="ellipse;whiteSpace=wrap;html=1;" parent="1" vertex="1">
          <mxGeometry x="-1380" y="740" width="130" height="60" as="geometry" />
        </mxCell>
        <mxCell id="QasiygPqZW1ddP8b3eg4-100" value="" style="endArrow=none;html=1;rounded=0;" parent="1" edge="1">
          <mxGeometry width="50" height="50" relative="1" as="geometry">
            <mxPoint x="-1320" y="740" as="sourcePoint" />
            <mxPoint x="-1320" y="700" as="targetPoint" />
          </mxGeometry>
        </mxCell>
        <mxCell id="QasiygPqZW1ddP8b3eg4-101" value="1" style="text;html=1;strokeColor=none;fillColor=none;align=center;verticalAlign=middle;whiteSpace=wrap;rounded=0;" parent="1" vertex="1">
          <mxGeometry x="-1440" y="635" width="60" height="30" as="geometry" />
        </mxCell>
        <mxCell id="QasiygPqZW1ddP8b3eg4-102" value="N" style="text;html=1;strokeColor=none;fillColor=none;align=center;verticalAlign=middle;whiteSpace=wrap;rounded=0;" parent="1" vertex="1">
          <mxGeometry x="-1270" y="635" width="60" height="30" as="geometry" />
        </mxCell>
        <mxCell id="QasiygPqZW1ddP8b3eg4-103" value="" style="endArrow=none;html=1;rounded=0;entryX=0;entryY=0.75;entryDx=0;entryDy=0;exitX=1;exitY=0.5;exitDx=0;exitDy=0;" parent="1" source="QasiygPqZW1ddP8b3eg4-104" target="B7g81SeDOoeG7HOJfXg6-3" edge="1">
          <mxGeometry width="50" height="50" relative="1" as="geometry">
            <mxPoint x="-460" y="7" as="sourcePoint" />
            <mxPoint x="-310" as="targetPoint" />
          </mxGeometry>
        </mxCell>
        <mxCell id="QasiygPqZW1ddP8b3eg4-105" value="N" style="text;html=1;strokeColor=none;fillColor=none;align=center;verticalAlign=middle;whiteSpace=wrap;rounded=0;" parent="1" vertex="1">
          <mxGeometry x="-565" y="130" width="60" height="30" as="geometry" />
        </mxCell>
        <mxCell id="QasiygPqZW1ddP8b3eg4-107" value="" style="endArrow=none;html=1;rounded=0;entryX=0;entryY=0.5;entryDx=0;entryDy=0;exitX=1;exitY=0;exitDx=0;exitDy=0;" parent="1" target="QasiygPqZW1ddP8b3eg4-104" edge="1" source="B7g81SeDOoeG7HOJfXg6-8">
          <mxGeometry width="50" height="50" relative="1" as="geometry">
            <mxPoint x="-460" y="7" as="sourcePoint" />
            <mxPoint x="-301" y="7" as="targetPoint" />
          </mxGeometry>
        </mxCell>
        <mxCell id="QasiygPqZW1ddP8b3eg4-104" value="TIENE" style="rhombus;whiteSpace=wrap;html=1;" parent="1" vertex="1">
          <mxGeometry x="-460" y="70" width="80" height="80" as="geometry" />
        </mxCell>
        <mxCell id="QasiygPqZW1ddP8b3eg4-108" value="N" style="text;html=1;strokeColor=none;fillColor=none;align=center;verticalAlign=middle;whiteSpace=wrap;rounded=0;" parent="1" vertex="1">
          <mxGeometry x="-337.5" y="30" width="60" height="30" as="geometry" />
        </mxCell>
        <mxCell id="QasiygPqZW1ddP8b3eg4-111" value="CODIGO&lt;br&gt;EVENTO" style="ellipse;whiteSpace=wrap;html=1;align=center;fontStyle=4;" parent="1" vertex="1">
          <mxGeometry x="-1030" y="-120" width="100" height="40" as="geometry" />
        </mxCell>
        <mxCell id="QasiygPqZW1ddP8b3eg4-112" value="FECHA" style="ellipse;whiteSpace=wrap;html=1;align=center;" parent="1" vertex="1">
          <mxGeometry x="-1213" y="-70" width="100" height="40" as="geometry" />
        </mxCell>
        <mxCell id="QasiygPqZW1ddP8b3eg4-113" value="DESCRIPCION" style="ellipse;whiteSpace=wrap;html=1;align=center;" parent="1" vertex="1">
          <mxGeometry x="-1230" y="-20" width="100" height="40" as="geometry" />
        </mxCell>
        <mxCell id="QasiygPqZW1ddP8b3eg4-114" value="" style="endArrow=none;html=1;rounded=0;entryX=0;entryY=0.633;entryDx=0;entryDy=0;exitX=1;exitY=0.5;exitDx=0;exitDy=0;entryPerimeter=0;" parent="1" target="B7g81SeDOoeG7HOJfXg6-17" edge="1" source="QasiygPqZW1ddP8b3eg4-113">
          <mxGeometry relative="1" as="geometry">
            <mxPoint x="-1140" y="65" as="sourcePoint" />
            <mxPoint x="-1080" y="65" as="targetPoint" />
          </mxGeometry>
        </mxCell>
        <mxCell id="QasiygPqZW1ddP8b3eg4-115" value="" style="endArrow=none;html=1;rounded=0;entryX=0;entryY=0.25;entryDx=0;entryDy=0;exitX=0.98;exitY=0.75;exitDx=0;exitDy=0;exitPerimeter=0;" parent="1" target="B7g81SeDOoeG7HOJfXg6-17" edge="1" source="QasiygPqZW1ddP8b3eg4-112">
          <mxGeometry relative="1" as="geometry">
            <mxPoint x="-1140" y="-20.5" as="sourcePoint" />
            <mxPoint x="-1080" y="-20.5" as="targetPoint" />
          </mxGeometry>
        </mxCell>
        <mxCell id="QasiygPqZW1ddP8b3eg4-116" value="" style="endArrow=none;html=1;rounded=0;entryX=0.5;entryY=0;entryDx=0;entryDy=0;exitX=0.5;exitY=1;exitDx=0;exitDy=0;" parent="1" source="QasiygPqZW1ddP8b3eg4-111" target="B7g81SeDOoeG7HOJfXg6-17" edge="1">
          <mxGeometry relative="1" as="geometry">
            <mxPoint x="-1010" y="-60" as="sourcePoint" />
            <mxPoint x="-950" y="-60" as="targetPoint" />
          </mxGeometry>
        </mxCell>
        <mxCell id="N5mk6Ooobnqi--6X-STS-1" value="" style="endArrow=none;html=1;rounded=0;entryX=0;entryY=0.5;entryDx=0;entryDy=0;exitX=1.017;exitY=0.4;exitDx=0;exitDy=0;exitPerimeter=0;" edge="1" parent="1" source="B7g81SeDOoeG7HOJfXg6-30" target="B7g81SeDOoeG7HOJfXg6-35">
          <mxGeometry width="50" height="50" relative="1" as="geometry">
            <mxPoint x="-1508" y="234" as="sourcePoint" />
            <mxPoint x="-1290" y="180" as="targetPoint" />
          </mxGeometry>
        </mxCell>
        <mxCell id="B7g81SeDOoeG7HOJfXg6-35" value="TIENE" style="rhombus;whiteSpace=wrap;html=1;" parent="1" vertex="1">
          <mxGeometry x="-1440" y="180" width="80" height="80" as="geometry" />
        </mxCell>
        <mxCell id="N5mk6Ooobnqi--6X-STS-2" value="" style="endArrow=none;html=1;rounded=0;" edge="1" parent="1">
          <mxGeometry width="50" height="50" relative="1" as="geometry">
            <mxPoint x="-990" y="80" as="sourcePoint" />
            <mxPoint x="-990" y="30" as="targetPoint" />
            <Array as="points">
              <mxPoint x="-990" y="45" />
            </Array>
          </mxGeometry>
        </mxCell>
        <mxCell id="N5mk6Ooobnqi--6X-STS-3" value="" style="endArrow=none;html=1;rounded=0;" edge="1" parent="1">
          <mxGeometry width="50" height="50" relative="1" as="geometry">
            <mxPoint x="-1220" y="70" as="sourcePoint" />
            <mxPoint x="-1050" y="70" as="targetPoint" />
          </mxGeometry>
        </mxCell>
        <mxCell id="N5mk6Ooobnqi--6X-STS-4" value="" style="endArrow=none;html=1;rounded=0;" edge="1" parent="1">
          <mxGeometry width="50" height="50" relative="1" as="geometry">
            <mxPoint x="-1220" y="150" as="sourcePoint" />
            <mxPoint x="-1220" y="70" as="targetPoint" />
          </mxGeometry>
        </mxCell>
        <mxCell id="N5mk6Ooobnqi--6X-STS-5" value="" style="endArrow=none;html=1;rounded=0;entryX=0.5;entryY=1;entryDx=0;entryDy=0;exitX=0.5;exitY=0;exitDx=0;exitDy=0;" edge="1" parent="1" source="B7g81SeDOoeG7HOJfXg6-9" target="B7g81SeDOoeG7HOJfXg6-8">
          <mxGeometry width="50" height="50" relative="1" as="geometry">
            <mxPoint x="-590" y="240" as="sourcePoint" />
            <mxPoint x="-540" y="190" as="targetPoint" />
          </mxGeometry>
        </mxCell>
        <mxCell id="N5mk6Ooobnqi--6X-STS-6" value="" style="endArrow=none;html=1;rounded=0;" edge="1" parent="1">
          <mxGeometry width="50" height="50" relative="1" as="geometry">
            <mxPoint x="-720" y="70" as="sourcePoint" />
            <mxPoint x="-1050" y="70" as="targetPoint" />
          </mxGeometry>
        </mxCell>
        <mxCell id="N5mk6Ooobnqi--6X-STS-7" value="" style="endArrow=none;html=1;rounded=0;exitX=0.425;exitY=0.017;exitDx=0;exitDy=0;exitPerimeter=0;" edge="1" parent="1" source="B7g81SeDOoeG7HOJfXg6-8">
          <mxGeometry width="50" height="50" relative="1" as="geometry">
            <mxPoint x="-650" y="120" as="sourcePoint" />
            <mxPoint x="-600" y="70" as="targetPoint" />
          </mxGeometry>
        </mxCell>
        <mxCell id="N5mk6Ooobnqi--6X-STS-8" value="" style="endArrow=none;html=1;rounded=0;exitX=0;exitY=0;exitDx=0;exitDy=0;" edge="1" parent="1" source="N5mk6Ooobnqi--6X-STS-27">
          <mxGeometry width="50" height="50" relative="1" as="geometry">
            <mxPoint x="-840" y="300" as="sourcePoint" />
            <mxPoint x="-900" y="215" as="targetPoint" />
          </mxGeometry>
        </mxCell>
        <mxCell id="N5mk6Ooobnqi--6X-STS-9" value="" style="endArrow=none;html=1;rounded=0;" edge="1" parent="1">
          <mxGeometry width="50" height="50" relative="1" as="geometry">
            <mxPoint x="-850" y="420" as="sourcePoint" />
            <mxPoint x="-940" y="215" as="targetPoint" />
          </mxGeometry>
        </mxCell>
        <mxCell id="N5mk6Ooobnqi--6X-STS-10" value="" style="endArrow=none;html=1;rounded=0;" edge="1" parent="1">
          <mxGeometry width="50" height="50" relative="1" as="geometry">
            <mxPoint x="-960" y="570" as="sourcePoint" />
            <mxPoint x="-960" y="215" as="targetPoint" />
          </mxGeometry>
        </mxCell>
        <mxCell id="N5mk6Ooobnqi--6X-STS-12" value="" style="endArrow=none;html=1;rounded=0;" edge="1" parent="1">
          <mxGeometry width="50" height="50" relative="1" as="geometry">
            <mxPoint x="-310" as="sourcePoint" />
            <mxPoint x="-303" as="targetPoint" />
          </mxGeometry>
        </mxCell>
        <mxCell id="N5mk6Ooobnqi--6X-STS-13" value="" style="endArrow=none;html=1;rounded=0;" edge="1" parent="1">
          <mxGeometry width="50" height="50" relative="1" as="geometry">
            <mxPoint x="-680" as="sourcePoint" />
            <mxPoint x="-680" y="-270" as="targetPoint" />
          </mxGeometry>
        </mxCell>
        <mxCell id="N5mk6Ooobnqi--6X-STS-14" value="" style="endArrow=none;html=1;rounded=0;" edge="1" parent="1">
          <mxGeometry width="50" height="50" relative="1" as="geometry">
            <mxPoint x="-2030" y="-270" as="sourcePoint" />
            <mxPoint x="-680" y="-270" as="targetPoint" />
          </mxGeometry>
        </mxCell>
        <mxCell id="N5mk6Ooobnqi--6X-STS-15" value="" style="endArrow=none;html=1;rounded=0;" edge="1" parent="1" source="N5mk6Ooobnqi--6X-STS-23">
          <mxGeometry width="50" height="50" relative="1" as="geometry">
            <mxPoint x="-2030" y="432" as="sourcePoint" />
            <mxPoint x="-2030" y="-270" as="targetPoint" />
            <Array as="points">
              <mxPoint x="-2030" y="-240" />
            </Array>
          </mxGeometry>
        </mxCell>
        <mxCell id="N5mk6Ooobnqi--6X-STS-16" value="" style="endArrow=none;html=1;rounded=0;" edge="1" parent="1">
          <mxGeometry width="50" height="50" relative="1" as="geometry">
            <mxPoint x="-2030" y="430" as="sourcePoint" />
            <mxPoint x="-1010" y="420" as="targetPoint" />
          </mxGeometry>
        </mxCell>
        <mxCell id="N5mk6Ooobnqi--6X-STS-17" value="" style="endArrow=none;html=1;rounded=0;entryX=0.25;entryY=0;entryDx=0;entryDy=0;" edge="1" parent="1" target="N5mk6Ooobnqi--6X-STS-18">
          <mxGeometry width="50" height="50" relative="1" as="geometry">
            <mxPoint x="-1010" y="420" as="sourcePoint" />
            <mxPoint x="-1010" y="210" as="targetPoint" />
          </mxGeometry>
        </mxCell>
        <mxCell id="N5mk6Ooobnqi--6X-STS-18" value="N" style="text;html=1;strokeColor=none;fillColor=none;align=center;verticalAlign=middle;whiteSpace=wrap;rounded=0;" vertex="1" parent="1">
          <mxGeometry x="-1023" y="215" width="60" height="30" as="geometry" />
        </mxCell>
        <mxCell id="N5mk6Ooobnqi--6X-STS-20" value="" style="endArrow=none;html=1;rounded=0;" edge="1" parent="1">
          <mxGeometry width="50" height="50" relative="1" as="geometry">
            <mxPoint x="-680" as="sourcePoint" />
            <mxPoint x="-310" as="targetPoint" />
          </mxGeometry>
        </mxCell>
        <mxCell id="N5mk6Ooobnqi--6X-STS-22" value="1" style="text;html=1;strokeColor=none;fillColor=none;align=center;verticalAlign=middle;whiteSpace=wrap;rounded=0;" vertex="1" parent="1">
          <mxGeometry x="-353" y="-30" width="60" height="30" as="geometry" />
        </mxCell>
        <mxCell id="N5mk6Ooobnqi--6X-STS-24" value="" style="endArrow=none;html=1;rounded=0;" edge="1" parent="1" target="N5mk6Ooobnqi--6X-STS-23">
          <mxGeometry width="50" height="50" relative="1" as="geometry">
            <mxPoint x="-2030" y="432" as="sourcePoint" />
            <mxPoint x="-2030" y="-270" as="targetPoint" />
            <Array as="points" />
          </mxGeometry>
        </mxCell>
        <mxCell id="N5mk6Ooobnqi--6X-STS-23" value="RECIBE" style="rhombus;whiteSpace=wrap;html=1;" vertex="1" parent="1">
          <mxGeometry x="-2090" y="-5" width="110" height="100" as="geometry" />
        </mxCell>
        <mxCell id="N5mk6Ooobnqi--6X-STS-25" value="" style="endArrow=none;html=1;rounded=0;exitX=0.75;exitY=0;exitDx=0;exitDy=0;entryX=0.5;entryY=1;entryDx=0;entryDy=0;" edge="1" parent="1" source="B7g81SeDOoeG7HOJfXg6-47" target="B7g81SeDOoeG7HOJfXg6-49">
          <mxGeometry width="50" height="50" relative="1" as="geometry">
            <mxPoint x="-865" y="980" as="sourcePoint" />
            <mxPoint x="-760" y="680" as="targetPoint" />
            <Array as="points" />
          </mxGeometry>
        </mxCell>
        <mxCell id="B7g81SeDOoeG7HOJfXg6-49" value="TIENE" style="rhombus;whiteSpace=wrap;html=1;" parent="1" vertex="1">
          <mxGeometry x="-855" y="815" width="80" height="80" as="geometry" />
        </mxCell>
        <mxCell id="N5mk6Ooobnqi--6X-STS-26" value="CENTRO&lt;br&gt;DE&lt;br&gt;SALUD" style="rounded=0;whiteSpace=wrap;html=1;" vertex="1" parent="1">
          <mxGeometry x="-810" y="330" width="120" height="60" as="geometry" />
        </mxCell>
        <mxCell id="N5mk6Ooobnqi--6X-STS-27" value="TIENE" style="rhombus;whiteSpace=wrap;html=1;" vertex="1" parent="1">
          <mxGeometry x="-885" y="255" width="60" height="50" as="geometry" />
        </mxCell>
        <mxCell id="N5mk6Ooobnqi--6X-STS-28" value="" style="endArrow=none;html=1;rounded=0;entryX=1;entryY=1;entryDx=0;entryDy=0;" edge="1" parent="1" target="N5mk6Ooobnqi--6X-STS-27">
          <mxGeometry width="50" height="50" relative="1" as="geometry">
            <mxPoint x="-810" y="330" as="sourcePoint" />
            <mxPoint x="-820" y="330" as="targetPoint" />
          </mxGeometry>
        </mxCell>
        <mxCell id="N5mk6Ooobnqi--6X-STS-29" value="&lt;u&gt;ID&lt;/u&gt;" style="ellipse;whiteSpace=wrap;html=1;" vertex="1" parent="1">
          <mxGeometry x="-670" y="310" width="40" height="40" as="geometry" />
        </mxCell>
        <mxCell id="N5mk6Ooobnqi--6X-STS-30" value="" style="endArrow=none;html=1;rounded=0;exitX=1;exitY=0.25;exitDx=0;exitDy=0;entryX=0;entryY=0.5;entryDx=0;entryDy=0;" edge="1" parent="1" source="N5mk6Ooobnqi--6X-STS-26" target="N5mk6Ooobnqi--6X-STS-29">
          <mxGeometry width="50" height="50" relative="1" as="geometry">
            <mxPoint x="-680" y="390" as="sourcePoint" />
            <mxPoint x="-630" y="340" as="targetPoint" />
          </mxGeometry>
        </mxCell>
        <mxCell id="N5mk6Ooobnqi--6X-STS-34" value="NOMBRE" style="ellipse;whiteSpace=wrap;html=1;" vertex="1" parent="1">
          <mxGeometry x="-630" y="350" width="70" height="40" as="geometry" />
        </mxCell>
        <mxCell id="N5mk6Ooobnqi--6X-STS-35" value="DIRECCION" style="ellipse;whiteSpace=wrap;html=1;" vertex="1" parent="1">
          <mxGeometry x="-680" y="390" width="80" height="30" as="geometry" />
        </mxCell>
        <mxCell id="N5mk6Ooobnqi--6X-STS-37" value="" style="endArrow=none;html=1;rounded=0;exitX=0;exitY=0.5;exitDx=0;exitDy=0;" edge="1" parent="1" source="N5mk6Ooobnqi--6X-STS-34">
          <mxGeometry width="50" height="50" relative="1" as="geometry">
            <mxPoint x="-740" y="420" as="sourcePoint" />
            <mxPoint x="-690" y="370" as="targetPoint" />
          </mxGeometry>
        </mxCell>
        <mxCell id="N5mk6Ooobnqi--6X-STS-38" value="" style="endArrow=none;html=1;rounded=0;exitX=0;exitY=0.5;exitDx=0;exitDy=0;" edge="1" parent="1" source="N5mk6Ooobnqi--6X-STS-35">
          <mxGeometry width="50" height="50" relative="1" as="geometry">
            <mxPoint x="-740" y="440" as="sourcePoint" />
            <mxPoint x="-690" y="390" as="targetPoint" />
          </mxGeometry>
        </mxCell>
        <mxCell id="N5mk6Ooobnqi--6X-STS-39" value="N" style="text;html=1;strokeColor=none;fillColor=none;align=center;verticalAlign=middle;whiteSpace=wrap;rounded=0;" vertex="1" parent="1">
          <mxGeometry x="-910" y="210" width="60" height="30" as="geometry" />
        </mxCell>
        <mxCell id="N5mk6Ooobnqi--6X-STS-40" value="1" style="text;html=1;strokeColor=none;fillColor=none;align=center;verticalAlign=middle;whiteSpace=wrap;rounded=0;" vertex="1" parent="1">
          <mxGeometry x="-835" y="300" width="60" height="30" as="geometry" />
        </mxCell>
        <mxCell id="N5mk6Ooobnqi--6X-STS-41" value="ID" style="ellipse;whiteSpace=wrap;html=1;fontStyle=4" vertex="1" parent="1">
          <mxGeometry x="760" y="295" width="40" height="30" as="geometry" />
        </mxCell>
        <mxCell id="N5mk6Ooobnqi--6X-STS-43" value="DESCRIPCION" style="ellipse;whiteSpace=wrap;html=1;" vertex="1" parent="1">
          <mxGeometry x="730" y="370" width="100" height="60" as="geometry" />
        </mxCell>
        <mxCell id="N5mk6Ooobnqi--6X-STS-44" value="" style="endArrow=none;html=1;rounded=0;exitX=1;exitY=0.25;exitDx=0;exitDy=0;" edge="1" parent="1" source="QasiygPqZW1ddP8b3eg4-10">
          <mxGeometry width="50" height="50" relative="1" as="geometry">
            <mxPoint x="710" y="360" as="sourcePoint" />
            <mxPoint x="760" y="310" as="targetPoint" />
          </mxGeometry>
        </mxCell>
        <mxCell id="N5mk6Ooobnqi--6X-STS-45" value="" style="endArrow=none;html=1;rounded=0;exitX=0.06;exitY=0.291;exitDx=0;exitDy=0;exitPerimeter=0;" edge="1" parent="1" source="N5mk6Ooobnqi--6X-STS-43">
          <mxGeometry width="50" height="50" relative="1" as="geometry">
            <mxPoint x="655" y="430" as="sourcePoint" />
            <mxPoint x="705" y="380" as="targetPoint" />
          </mxGeometry>
        </mxCell>
      </root>
    </mxGraphModel>
  </diagram>
</mxfile>
